<svg id="Capa_1" enable-background="new 0 0 512 512" height="512" viewBox="0 0 512 512" width="512" xmlns="http://www.w3.org/2000/svg"><g><g><path d="m256 325c-141.387 0-244.185-157.032-223.461-194 43.82-78.171 127.47-131 223.461-131s179.641 52.829 223.461 131c20.724 36.968-82.074 194-223.461 194z" fill="#f3da51"/><path d="m512 256c0 26.051-3.891 51.191-11.129 74.871-5.031 16.469-11.672 32.231-19.75 47.109-8.25 15.2-147.391 53.02-225.121 53.02s-216.871-37.82-225.109-53.02c-3.289-6.031-6.332-12.21-9.121-18.531-14-31.629-21.77-66.629-21.77-103.449 0-46.219 12.25-89.57 33.68-127 44.121 77.07 127.16 129 222.32 129s178.211-51.93 222.32-129c21.43 37.43 33.68 80.781 33.68 127zm0 0" fill="#eec02d"/><path d="m481.262 377.699c-7.16 13.223-15.434 25.742-24.723 37.43-6.08 7.663-12.599 14.964-19.51 21.871-2.679 2.677-114.42 41-181.029 41s-178.331-38.304-181-40.971c-6.921-6.916-13.45-14.227-19.539-21.9-9.289-11.688-17.563-24.207-24.723-37.43zm0 0" fill="#e27e1e"/></g><g><path d="m437.449 436.581c-30.45-28.357-126.585-36.492-181.449-36.492s-150.999 8.134-181.449 36.492c46.361 46.582 110.535 75.419 181.449 75.419s135.088-28.837 181.449-75.419z" fill="#abf63a"/><path d="m437.449 436.581c-30.45-28.357-126.585-36.492-181.449-36.492v111.911c70.914 0 135.088-28.837 181.449-75.419z" fill="#63ae82"/><g><path d="m245.071 456.034c.022-104.894 86.001-190.237 190.732-190.237h11.191v11.191c0 104.741-86.242 190.095-190.994 190.248z" fill="#a53672"/></g><g><g><path d="m256 467.236c-104.752-.153-190.994-85.507-190.994-190.248v-11.191h11.191c104.731 0 190.71 85.343 190.732 190.237z" fill="#de5f92"/></g></g><path d="m363.244 217.808-4.284-10.339-10.339 4.284c-88.972 36.856-135.16 134.133-110.811 224.893 2.105 7.848 18.189 30.589 18.189 30.589 96.764-40.239 147.277-152.773 107.245-249.427z" fill="#de5f92"/><path d="m163.379 211.754-10.339-4.284-4.284 10.339c-40.021 96.631 10.524 209.176 107.244 249.427 0 0 16.694-24.726 18.916-33.573 22.574-89.904-23.553-185.464-111.537-221.909z" fill="#e17cb5"/><path d="m256 187-7.912 7.912c-74.174 74.174-74.174 190.237 0 264.411l7.912 7.912 63.543-140.118z" fill="#ebb0cc"/><path d="m263.912 194.912-7.912-7.912v280.236l7.912-7.912c74.174-74.174 74.174-190.238 0-264.412z" fill="#e17cb5"/></g><g fill="#fff"><path d="m185 79.531h-1.524c-6.754 0-12.226-5.477-12.226-12.227v-1.523h-8.715v1.523c0 6.75-5.477 12.227-12.227 12.227h-1.527v8.715h1.527c6.75 0 12.227 5.472 12.227 12.226v1.528h8.715v-1.528c0-6.754 5.472-12.226 12.226-12.226h1.524zm0 0"/><path d="m273.219 126.75h-1.524c-6.754 0-12.226-5.477-12.226-12.227v-1.523h-8.715v1.523c0 6.75-5.477 12.227-12.227 12.227h-1.527v8.715h1.527c6.75 0 12.227 5.472 12.227 12.226v1.528h8.715v-1.528c0-6.754 5.472-12.226 12.226-12.226h1.524zm0 0"/><path d="m360 79.531h-1.524c-6.754 0-12.226-5.477-12.226-12.227v-1.523h-8.715v1.523c0 6.75-5.477 12.227-12.227 12.227h-1.527v8.715h1.527c6.75 0 12.227 5.472 12.227 12.226v1.528h8.715v-1.528c0-6.754 5.472-12.226 12.226-12.226h1.524zm0 0"/><path d="m433.219 179.531h-1.524c-6.754 0-12.226-5.477-12.226-12.227v-1.523h-8.715v1.523c0 6.75-5.477 12.227-12.227 12.227h-1.527v8.715h1.527c6.75 0 12.227 5.472 12.227 12.226v1.528h8.715v-1.528c0-6.754 5.472-12.226 12.226-12.226h1.524zm0 0"/><path d="m116.219 179.531h-1.524c-6.754 0-12.226-5.477-12.226-12.227v-1.523h-8.715v1.523c0 6.75-5.477 12.227-12.227 12.227h-1.527v8.715h1.527c6.75 0 12.227 5.472 12.227 12.226v1.528h8.715v-1.528c0-6.754 5.472-12.226 12.226-12.226h1.524zm0 0"/></g></g></svg>